<svg id="Capa_1" enable-background="new 0 0 512 512" height="512" viewBox="0 0 512 512" width="512" xmlns="http://www.w3.org/2000/svg" xmlns:xlink="http://www.w3.org/1999/xlink"><linearGradient id="SVGID_1_" gradientUnits="userSpaceOnUse" x1="256" x2="256" y1="512" y2="0"><stop offset="0" stop-color="#c3ffe8"/><stop offset=".9973" stop-color="#f0fff4"/></linearGradient><linearGradient id="SVGID_2_" gradientUnits="userSpaceOnUse" x1="256" x2="256" y1="387.916" y2="139.187"><stop offset="0" stop-color="#9cffac"/><stop offset="1" stop-color="#00b59c"/></linearGradient><g><g><circle cx="256" cy="256" fill="url(#SVGID_1_)" r="256"/></g><g><g><path d="m249.72 195.566c1.735 1.738 4.007 2.606 6.28 2.606s4.545-.869 6.28-2.606l17.765-17.793c1.665-1.668 2.602-3.927 2.602-6.29v-35.586c0-4.917-3.973-8.896-8.882-8.896h-35.529c-4.91 0-8.882 3.979-8.882 8.896v35.586c0 2.363.937 4.622 2.602 6.29zm6.28 47.089c-39.181 0-71.059 31.928-71.059 71.172s31.878 71.173 71.059 71.173 71.059-31.928 71.059-71.172-31.878-71.173-71.059-71.173zm17.765 35.586c4.905 0 8.882 3.982 8.882 8.896 0 4.913-3.977 8.896-8.882 8.896s-8.882-3.983-8.882-8.896c-.001-4.913 3.976-8.896 8.882-8.896zm-35.53 0c4.905 0 8.882 3.982 8.882 8.896 0 4.913-3.977 8.896-8.882 8.896s-8.882-3.983-8.882-8.896 3.977-8.896 8.882-8.896zm51.265 47.454c-5.022 14.188-18.485 23.719-33.5 23.719s-28.477-9.531-33.5-23.719c-1.64-4.631.781-9.713 5.404-11.355 4.58-1.633 9.689.773 11.337 5.413 2.516 7.098 9.247 11.868 16.759 11.868s14.243-4.77 16.759-11.868c1.631-4.64 6.74-7.055 11.337-5.413 4.623 1.642 7.043 6.725 5.404 11.355zm-146.346-112.313c-23.807 26.817-38.154 62.085-38.154 100.446 0 4.917 3.973 8.896 8.882 8.896h44.412c4.909 0 8.882-3.979 8.882-8.896 0-21.318 7.836-40.646 20.367-55.986zm225.692 0-44.389 44.46c12.531 15.34 20.367 34.667 20.367 55.986 0 4.917 3.973 8.896 8.882 8.896h44.412c4.91 0 8.882-3.979 8.882-8.896 0-38.361-14.347-73.629-38.154-100.446zm-112.846 11.48c21.284 0 40.581 7.849 55.896 20.4l44.338-44.409c-15.909-14.159-34.802-25.099-55.823-31.525v2.156c0 7.124-2.776 13.831-7.807 18.87l-17.765 17.793c-5.031 5.039-11.728 7.819-18.84 7.819s-13.809-2.78-18.84-7.819l-17.765-17.793c-5.031-5.039-7.807-11.746-7.807-18.87v-2.156c-21.021 6.427-39.913 17.366-55.823 31.525l44.338 44.409c15.317-12.551 34.614-20.4 55.898-20.4z" fill="url(#SVGID_2_)"/></g></g></g></svg>