<svg id="Layer_1" enable-background="new 0 0 512 512" height="512" viewBox="0 0 512 512" width="512" xmlns="http://www.w3.org/2000/svg"><g><ellipse cx="304.2" cy="159.6" fill="#ff6b6b" rx="159.6" ry="159.6" transform="matrix(.707 -.707 .707 .707 -23.756 261.848)"/><path d="m304.2 319.2v-319.2c88.003 0 159.6 71.596 159.6 159.6s-71.596 159.6-159.6 159.6z" fill="#ff3d7d"/><path d="m247 235.867c-6.627-4.971-7.971-14.373-3-21l96.4-128.533c4.971-6.626 14.373-7.97 21-3 6.627 4.971 7.971 14.373 3 21l-96.4 128.533c-5.133 6.844-14.581 7.815-21 3z" fill="#fff7f4"/><path d="m256 126.4c-8.284 0-15-6.716-15-15v-16.066c0-8.284 6.716-15 15-15s15 6.716 15 15v16.066c0 8.284-6.716 15-15 15z" fill="#fff7f4"/><path d="m352.4 238.867c-8.284 0-15-6.716-15-15v-16.067c0-8.284 6.716-15 15-15s15 6.716 15 15v16.067c0 8.284-6.716 15-15 15z" fill="#f0e6e6"/><path d="m456.81 359.997-94.445 83.948c-2.746 2.441-6.291 3.789-9.965 3.789h-79.91c-8.077 0-15.027-6.207-15.407-14.275-.406-8.614 6.458-15.725 14.983-15.725h61.982c10.148 0 18.366-8.243 18.335-18.391-.658-25.235-21.055-45.876-47.899-45.876h-46.381c-3.092-.885-9.513-2.721-17.777-5.079-26.31-7.517-55.059-2.166-76.906 14.313-16.792 12.666-28.383 31.063-32.847 51.331l-47.669-11.917c-5.62-1.404-11.656.535-15.405 5.244-2.171 2.727-3.233 6.174-3.233 9.66v64.983c0 16.569 13.431 30 30 30h263.645c21.174 0 41.08-8.245 56.051-23.215l93.645-93.645c2.797-2.797 4.385-6.59 4.393-10.545.061-28.681-33.955-43.475-55.19-24.6z" fill="#ffe1d2"/><path d="m456.81 359.997-94.445 83.948c-2.746 2.44-6.291 3.789-9.965 3.789h-288.133v34.266c0 16.569 13.431 30 30 30h263.645c21.174 0 41.08-8.245 56.051-23.215l93.645-93.645c2.797-2.797 4.385-6.59 4.393-10.545.06-28.679-33.956-43.473-55.191-24.598z" fill="#ffbeb9"/><path d="m94.267 512h-79.267c-8.284 0-15-6.716-15-15v-112.467c0-8.284 6.716-15 15-15h64.267c8.284 0 15 6.716 15 15z" fill="#5ecbf1"/><path d="m0 447.733v49.267c0 8.284 6.716 15 15 15h79.267v-64.267z" fill="#4793ff"/><path d="m361.4 83.334c-6.627-4.97-16.029-3.626-21 3l-36.2 48.266v50l60.2-80.266c4.971-6.628 3.627-16.03-3-21z" fill="#f0e6e6"/></g></svg>