<svg id="Capa_1" enable-background="new 0 0 512 512" height="512" viewBox="0 0 512 512" width="512" xmlns="http://www.w3.org/2000/svg"><g><g><g><g><g><g id="XMLID_1001_"><g id="XMLID_1002_"><g id="XMLID_1003_"><g id="XMLID_1004_"><g id="XMLID_1005_"><g id="XMLID_1006_"><g id="XMLID_1007_"><g id="XMLID_1008_"><g id="XMLID_1009_"><g id="XMLID_1010_"><g id="XMLID_1011_"><g id="XMLID_1012_"><g id="XMLID_1013_"><g id="XMLID_1014_"><g id="XMLID_1015_"><circle cx="256" cy="256" fill="#6969ff" r="256"/></g></g></g></g></g></g></g></g></g></g></g></g></g></g></g></g></g></g></g><path d="m512 256c0-21.803-2.726-42.969-7.854-63.176l-121.586-121.586-284.905 337.739 95.169 95.169c20.207 5.128 41.373 7.854 63.176 7.854 141.385 0 256-114.615 256-256z" fill="#473dc9"/><g><path d="m129.44 440.762v-262.052l51.12-22.676 24.558-53.011h209.227v337.739z" fill="#ffe33b"/><g><path d="m256 103.023h158.345v337.739h-158.345z" fill="#fb3"/></g><path d="m382.56 71.238v262.052l-51.12 22.676-24.558 53.011h-209.227v-337.739z" fill="#fff"/><g><g><path d="m256 71.238v337.739h50.882l24.558-53.011 51.12-22.676v-262.052z" fill="#e8e8e8"/></g></g></g><g><g><g><path d="m135.814 254.631h208.587v30h-208.587z" fill="#545454"/></g></g><path d="m256 254.631h88.401v30h-88.401z" fill="#3d3d3d"/><g><g><g><path d="m135.814 316.536h208.587v30h-208.587z" fill="#545454"/></g></g></g><path d="m256 316.536h88.401v30h-88.401z" fill="#3d3d3d"/><path d="m306.882 408.977v-75.687h75.678z" fill="#b2b2b2"/><path d="m200.794 222.725h16.04l-33.54-88.87-13.64.02-33.84 88.85h16.05l6.056-15.899h36.874zm-37.16-30.899 12.81-33.631 12.691 33.631z" fill="#fe7d43"/><path d="m256 133.861h-19.167v-19.167h-15v19.167h-19.629v15h19.629v19.629h15v-19.629h19.167z" fill="#fe7d43"/><g><g><g><path d="m240.107 192.725h104.293v30h-104.293z" fill="#545454"/></g></g></g><g><path d="m256 192.725h88.401v30h-88.401z" fill="#3d3d3d"/></g></g></g></svg>