<svg id="Layer_3" enable-background="new 0 0 64 64" height="512" viewBox="0 0 64 64" width="512" xmlns="http://www.w3.org/2000/svg"><g><circle cx="19" cy="5" r="3"/><circle cx="45" cy="5" r="3"/><path d="m28 18h8l-4-6z"/><path d="m13 9h38v2h-38z"/><path d="m49 13h2v2h-2z"/><path d="m49 17h2v12h-2z"/><path d="m45 21h2v6h-2z"/><path d="m45 17h2v2h-2z"/><path d="m13 13h2v2h-2z"/><path d="m13 17h2v12h-2z"/><path d="m17 21h2v6h-2z"/><path d="m17 17h2v2h-2z"/><path d="m23.722 26.288c-1.035.487-1.722 1.533-1.722 2.712 0 1.654 1.346 3 3 3 .528 0 1.046-.139 1.499-.4l1.002 1.73c-.757.439-1.622.67-2.501.67 0 1.103.897 2 2 2s2-.897 2-2v-10c0-1.103-.897-2-2-2s-2 .897-2 2c0 .847.536 1.604 1.333 1.886l-.666 1.886c-.806-.285-1.477-.813-1.945-1.484z"/><path d="m39 24c0-1.103-.897-2-2-2s-2 .897-2 2v10c0 1.103.897 2 2 2s2-.897 2-2c-.879 0-1.744-.231-2.501-.67l1.002-1.73c.453.261.971.4 1.499.4 1.654 0 3-1.346 3-3 0-1.179-.687-2.225-1.722-2.712-.468.671-1.139 1.199-1.945 1.484l-.666-1.886c.797-.282 1.333-1.039 1.333-1.886z"/><path d="m41 39c0-1.076-.168-2.135-.473-3.154-.67 1.274-1.99 2.154-3.527 2.154-2.206 0-4-1.794-4-4v-5.578c-.653-.185-1.321-.313-2-.375v5.953c0 2.206-1.794 4-4 4s-4-1.794-4-4c0-.137.021-.27.034-.405-.681-.292-1.271-.743-1.756-1.289-1.473 1.914-2.278 4.247-2.278 6.694v1.075c0 3.127.644 6.161 1.914 9.019 1.384 3.115 2.086 6.423 2.086 9.831v3.075h12v-6c0-.553.447-1 1-1h5v-8c0-.553.447-1 1-1h2.382l-3.276-6.553c-.07-.138-.106-.292-.106-.447z"/></g></svg>