<?xml version="1.0"?>
<svg xmlns="http://www.w3.org/2000/svg" xmlns:xlink="http://www.w3.org/1999/xlink" xmlns:svgjs="http://svgjs.com/svgjs" version="1.1" width="512" height="512" x="0" y="0" viewBox="0 0 64 64" style="enable-background:new 0 0 512 512" xml:space="preserve"><g><g xmlns="http://www.w3.org/2000/svg"><path d="m42.998 38.76c-.071-3.931-1.922-7.571-4.998-9.979v-5.397c3.716-2.145 6-6.069 6-10.383 0-6.617-5.383-12-12-12s-12 5.382-12 11.999c0 4.314 2.284 8.238 6 10.383v3.254c-5.335 1.721-9 6.691-9 12.363v1.076c0 3.409.702 6.716 2.086 9.831 1.27 2.856 1.914 5.89 1.914 9.017v4.076h2v-4.076c0-3.409-.702-6.716-2.086-9.831-1.27-2.856-1.914-5.89-1.914-9.017v-1.076c0-4.578 2.823-8.615 7-10.242v.242c0 .552.448 1 1 1h2v10h2v-1h2v1h2v-10h1.302c2.941 2.063 4.698 5.401 4.698 9 0 .155.036.309.105.447l3.277 6.553h-2.382c-.552 0-1 .448-1 1v8h-8v2h2v6h2v-6h5c.552 0 1-.448 1-1v-8h3c.347 0 .668-.18.851-.474.182-.295.199-.663.044-.973zm-11.998-5.76h2v1h-2zm0 4v-1h2v1zm2-6h-2v-1h2zm-2-4h2v1h-2zm5 1h-1v-4h-2v1h-2v-1h-2v4h-1v-5.21c0-.375-.21-.719-.544-.89-3.366-1.723-5.456-5.133-5.456-8.9 0-5.514 4.486-10 10-10s10 4.486 10 10c0 3.767-2.09 7.177-5.456 8.899-.334.171-.544.515-.544.891z" fill="#ffffff" data-original="#000000" style=""/><path d="m37 10h-2v-2h-2v2h-2v-2h-2v2h-2v2h2v9h2v-9h2v9h2v-9h2z" fill="#ffffff" data-original="#000000" style=""/><path d="m45.692 8.5h7.616v2h-7.616z" transform="matrix(.919 -.394 .394 .919 .262 20.277)" fill="#ffffff" data-original="#000000" style=""/><path d="m48.5 12.692h2v7.616h-2z" transform="matrix(.394 -.919 .919 .394 14.835 55.498)" fill="#ffffff" data-original="#000000" style=""/><path d="m13.5 5.692h2v7.616h-2z" transform="matrix(.394 -.919 .919 .394 .056 19.085)" fill="#ffffff" data-original="#000000" style=""/><path d="m10.692 15.5h7.616v2h-7.616z" transform="matrix(.919 -.394 .394 .919 -5.327 7.046)" fill="#ffffff" data-original="#000000" style=""/></g></g></svg>
