<svg id="Layer_3" enable-background="new 0 0 64 64" height="512" viewBox="0 0 64 64" width="512" xmlns="http://www.w3.org/2000/svg"><g><path d="m22 62v-3.076c0-3.247-.681-6.457-2-9.424-1.319-2.967-2-6.178-2-9.424v-1.076c0-6.627 5.373-12 12-12 6.627 0 12 5.373 12 12l4 8h-4v9h-6v6" fill="#4c506e"/><path d="m36 28.618c-1.766-1.023-3.812-1.618-6-1.618-6.627 0-12 5.373-12 12v1.076c0 3.247.681 6.457 2 9.424.363.816.672 1.652.938 2.5h13.062c1.105 0 2-.895 2-2z" fill="#787faa"/><path d="m22 41c-.552 0-1-.448-1-1v-5c0-.552.448-1 1-1 .552 0 1 .448 1 1v5c0 .552-.448 1-1 1z" fill="#4c506e"/><path d="m33 58h-8c-.552 0-1 .448-1 1 0 .552.448 1 1 1h8c.552 0 1-.448 1-1 0-.552-.448-1-1-1z" fill="#787faa"/><g><path d="m19 9c-2.206 0-4-1.794-4-4s1.794-4 4-4 4 1.794 4 4-1.794 4-4 4zm0-6c-1.103 0-2 .897-2 2s.897 2 2 2 2-.897 2-2-.897-2-2-2z" fill="#ba4753"/></g><g><path d="m45 9c-2.206 0-4-1.794-4-4s1.794-4 4-4 4 1.794 4 4-1.794 4-4 4zm0-6c-1.103 0-2 .897-2 2s.897 2 2 2 2-.897 2-2-.897-2-2-2z" fill="#546ded"/></g><g><path d="m13 9h38v2h-38z" fill="#c8cded"/></g><path d="m32 12-4 6h8z" fill="#787faa"/><g><path d="m49 13h2v2h-2z" fill="#546ded"/></g><g><path d="m49 17h2v12h-2z" fill="#546ded"/></g><g><path d="m45 21h2v6h-2z" fill="#7fa3f8"/></g><g><path d="m45 17h2v2h-2z" fill="#7fa3f8"/></g><g><path d="m13 13h2v2h-2z" fill="#ba4753"/></g><g><path d="m13 17h2v12h-2z" fill="#ba4753"/></g><g><path d="m17 21h2v6h-2z" fill="#f29b99"/></g><g><path d="m17 17h2v2h-2z" fill="#f29b99"/></g><path d="m30 24c0-1.657-1.343-3-3-3s-3 1.343-3 3c0 .382.078.744.208 1.08-1.829.367-3.208 1.982-3.208 3.92s1.379 3.553 3.208 3.92c-.13.336-.208.698-.208 1.08 0 1.657 1.343 3 3 3s3-1.343 3-3z" fill="#fbe1ca"/><path d="m27 20c-2.206 0-4 1.794-4 4 0 .138.018.273.032.408-1.816.777-3.032 2.567-3.032 4.592 0 2.757 2.243 5 5 5 .879 0 1.744-.231 2.501-.67l-1.002-1.73c-.453.261-.971.4-1.499.4-1.654 0-3-1.346-3-3 0-1.179.687-2.225 1.722-2.712.468.671 1.139 1.199 1.945 1.484l.666-1.886c-.797-.282-1.333-1.039-1.333-1.886 0-1.103.897-2 2-2s2 .897 2 2h2c0-2.206-1.794-4-4-4z" fill="#f2b9a1"/><path d="m34 24c0-1.657 1.343-3 3-3s3 1.343 3 3c0 .382-.078.744-.208 1.08 1.829.367 3.208 1.982 3.208 3.92s-1.379 3.553-3.208 3.92c.13.336.208.698.208 1.08 0 1.657-1.343 3-3 3s-3-1.343-3-3z" fill="#fbe1ca"/><path d="m37 20c2.206 0 4 1.794 4 4 0 .138-.018.273-.032.408 1.816.777 3.032 2.567 3.032 4.592 0 2.757-2.243 5-5 5-.879 0-1.744-.231-2.501-.67l1.002-1.73c.453.261.971.4 1.499.4 1.654 0 3-1.346 3-3 0-1.179-.687-2.225-1.722-2.712-.468.671-1.139 1.199-1.945 1.484l-.666-1.886c.797-.282 1.333-1.039 1.333-1.886 0-1.103-.897-2-2-2s-2 .897-2 2h-2c0-2.206 1.794-4 4-4z" fill="#f2b9a1"/></g></svg>