<svg id="Layer_3" height="512" viewBox="0 0 64 64" width="512" xmlns="http://www.w3.org/2000/svg" data-name="Layer 3"><rect fill="#5e87ca" height="30" rx="2" width="20" x="42" y="2"/><path d="m58 28v-26h-14a2 2 0 0 0 -2 2v24z" fill="#78a0d4"/><path d="m46 16h12v12h-12z" fill="#b5b5b5"/><g fill="#ccc"><path d="m46 16h4v4h-4z"/><path d="m54 16h4v4h-4z"/><path d="m50 20h4v4h-4z"/><path d="m46 24h4v4h-4z"/><path d="m54 24h4v4h-4z"/></g><path d="m35 15v-3a10 10 0 0 0 -10-10 10 10 0 0 0 -10 10v3h3a2 2 0 0 0 2-2 1 1 0 0 1 1-1h5l4-2v3a2 2 0 0 0 2 2z" fill="#c18e59"/><path d="m14 35a12 12 0 0 0 -12 12v15h46v-15a12 12 0 0 0 -12-12z" fill="#e2e7f6"/><path d="m30.032 28.463a8.96 8.96 0 0 1 -5.032 1.537 8.953 8.953 0 0 1 -5-1.516v4.516a2 2 0 0 1 -2 2l7 6 7-6a2 2 0 0 1 -2-2v-4.517z" fill="#f2b9a1"/><path d="m22.828 39.138-4.828 3.862-2-8h2z" fill="#c8cded"/><path d="m27.172 39.138 4.828-4.138h2l-2 8z" fill="#c8cded"/><path d="m27.999 62 1.001-6-2-10h-4l-2 10 .999 6z" fill="#78a0d4"/><path d="m22 43 1 3h4l1-3-.828-3.862-2.172 1.862-2.172-1.862z" fill="#5e87ca"/><path d="m26 12 4-2v3a2 2 0 0 0 2 2h2v6a9 9 0 0 1 -9 9 9 9 0 0 1 -9-9v-6h2a2 2 0 0 0 2-2 1 1 0 0 1 1-1z" fill="#fbe1ca"/><path d="m16 20h-1.5a2.5 2.5 0 0 1 -2.5-2.5 2.5 2.5 0 0 1 2.5-2.5h1.5" fill="#f2b9a1"/><path d="m34 20h1.5a2.5 2.5 0 0 0 2.5-2.5 2.5 2.5 0 0 0 -2.5-2.5h-1.5" fill="#f2b9a1"/><path d="m46 6h12v6h-12z" fill="#f2f2f2"/><path d="m55 8v-2h-9v3h8a1 1 0 0 0 1-1z" fill="#fff"/><path d="m60 1h-16a3 3 0 0 0 -3 3v26a3 3 0 0 0 3 3h16a3 3 0 0 0 3-3v-26a3 3 0 0 0 -3-3zm1 29a1 1 0 0 1 -1 1h-16a1 1 0 0 1 -1-1v-26a1 1 0 0 1 1-1h16a1 1 0 0 1 1 1z"/><path d="m58 5h-12a1 1 0 0 0 -1 1v6a1 1 0 0 0 1 1h12a1 1 0 0 0 1-1v-6a1 1 0 0 0 -1-1zm-1 6h-10v-4h10z"/><path d="m58 15h-12a1 1 0 0 0 -1 1v12a1 1 0 0 0 1 1h12a1 1 0 0 0 1-1v-12a1 1 0 0 0 -1-1zm-1 4h-2v-2h2zm-6 4v-2h2v2zm2 2v2h-2v-2zm-4-2h-2v-2h2zm2-4v-2h2v2zm4 2h2v2h-2zm-6-4v2h-2v-2zm-2 8h2v2h-2zm8 2v-2h2v2z"/><path d="m36 34h-4a1 1 0 0 1 -1-1v-4.019a9.981 9.981 0 0 0 4-7.981h.5a3.492 3.492 0 0 0 .5-6.949v-2.051a11 11 0 0 0 -22 0v2.051a3.492 3.492 0 0 0 .5 6.949h.5a9.981 9.981 0 0 0 4 7.981v4.019a1 1 0 0 1 -1 1h-4a13.015 13.015 0 0 0 -13 13v15a1 1 0 0 0 1 1h46a1 1 0 0 0 1-1v-15a13.015 13.015 0 0 0 -13-13zm-8.848 27h-4.306l-.829-4.983 1.803-9.017h2.36l1.8 9.016zm-5.892-21.888-2.668 2.134-1.311-5.246h.349zm5.221 1.936.478 1.912-.68 2.04h-2.558l-.68-2.04.478-1.912.83.711a1 1 0 0 0 1.3 0zm5.889-5.048h.349l-1.311 5.245-2.668-2.134zm4.63-18.5a1.5 1.5 0 0 1 -1.5 1.5h-.5v-3h.5a1.5 1.5 0 0 1 1.5 1.5zm-22.5 1.5a1.5 1.5 0 0 1 0-3h.5v3zm1.5-7a9 9 0 0 1 18 0v2h-2a1 1 0 0 1 -1-1v-3a1 1 0 0 0 -1.447-.895l-3.79 1.895h-4.763a2 2 0 0 0 -2 2 1 1 0 0 1 -1 1h-2zm1 9v-5h1a3 3 0 0 0 3-3h5a1 1 0 0 0 .447-.105l2.553-1.277v1.382a3 3 0 0 0 3 3h1v5a8 8 0 0 1 -16 0zm8 10a9.929 9.929 0 0 0 4-.841v2.841a2.984 2.984 0 0 0 1.105 2.307l-5.105 4.376-5.1-4.376a2.984 2.984 0 0 0 1.1-2.307v-2.841a9.929 9.929 0 0 0 4 .841zm-22 16a11.013 11.013 0 0 1 11-11h1.219l1.811 7.243a1 1 0 0 0 .65.7.985.985 0 0 0 .32.057 1 1 0 0 0 .625-.219l2.686-2.15-.281 1.126a1 1 0 0 0 .021.559l.916 2.749-1.947 9.735a.99.99 0 0 0 -.006.36l.8 4.836h-8.814v-11.996h-2v12h-7zm44 14h-7v-12h-2v12h-8.82l.806-4.835a1 1 0 0 0 -.006-.361l-1.947-9.739.916-2.749a1 1 0 0 0 .021-.559l-.281-1.126 2.686 2.149a1 1 0 0 0 .625.22 1.013 1.013 0 0 0 .32-.053 1 1 0 0 0 .65-.705l1.811-7.242h1.219a11.013 11.013 0 0 1 11 11z"/></svg>