<svg id="Capa_1" enable-background="new 0 0 512 512" height="512" viewBox="0 0 512 512" width="512" xmlns="http://www.w3.org/2000/svg"><g><g><path d="m280.6 18.12-75 236.16c-5.032 14.394 7.432 27.052 22.68 27.052h50.936c14.732 0 43.506 15.313 39.424 29.468l-55.8 160.92c-3.343 11.592-6.117 29.835 1.482 20.465l12.833 1.232 213.577-263.342c11.737-14.472 1.438-36.086-17.196-36.086h-62.647c-15.314 0-26.003-15.174-20.848-29.593l48.193-134.801c5.155-14.421-5.534-29.595-20.848-29.595h-99.216l-16.67 3.287c-9.411 0-17.794 5.949-20.9 14.833z" fill="#ffc269"/></g><g><path d="m222.864 240.426c57.378-7.213 101.907-56.307 101.907-115.609 0-31.569-12.622-60.242-33.081-81.247l10.047-28.736c3.106-8.885 11.489-14.834 20.9-14.834h-29.669c-9.411 0-17.794 5.949-20.9 14.833l-12.319 35.235 20.371 109.412-78.173 55.914-12.758 36.491c-5.032 14.394 5.651 29.447 20.9 29.447h29.669c-15.248 0-25.932-15.054-20.9-29.447z" fill="#ffa95f"/></g><g><path d="m330.159 309.606c4.082-14.155-6.541-28.274-21.273-28.274h-29.669c14.732 0 25.355 14.119 21.273 28.274l-54.269 188.195c-3.343 11.592 11.635 19.41 19.235 10.04l11.699-14.425z" fill="#ffa95f"/></g><g><path d="m128.2 124.817c0-50.13 29.31-89.177 79.44-89.177 2.552 0 5.688-1.487 8.187-1.281 46.584 3.851 83.19 42.879 83.19 90.457 0 47.919-37.133 87.166-84.194 90.535-2.172.155-8.146-1.871-10.357-1.871-50.13 0-76.266-38.533-76.266-88.663z" fill="#e5646e"/></g><g><path d="m138.599 124.817c0-46.558 35.055-84.921 80.209-90.154-3.465-.402-6.988-.615-10.56-.615-50.13 0-90.769 40.639-90.769 90.769s40.639 90.769 90.769 90.769c3.573 0 7.095-.213 10.56-.615-45.154-5.233-80.209-43.597-80.209-90.154z" fill="#db4655"/></g><g><g><path d="m190.368 175.619c-.997 0-2.01-.194-2.987-.604-3.935-1.652-5.786-6.18-4.134-10.115l36.948-88.038c1.652-3.935 6.182-5.783 10.114-4.135 3.935 1.652 5.786 6.18 4.134 10.115l-36.948 88.038c-1.241 2.958-4.109 4.739-7.127 4.739z" fill="#eceaec"/></g><g><path d="m174.606 121.418c-13.262 0-24.052-11.976-24.052-26.697s10.79-26.697 24.052-26.697 24.052 11.976 24.052 26.697-10.79 26.697-24.052 26.697zm0-37.942c-4.661 0-8.599 5.149-8.599 11.244s3.938 11.244 8.599 11.244 8.599-5.149 8.599-11.244-3.938-11.244-8.599-11.244z" fill="#eceaec"/></g><g><path d="m241.889 181.611c-13.262 0-24.052-11.976-24.052-26.697s10.79-26.697 24.052-26.697 24.052 11.976 24.052 26.697-10.79 26.697-24.052 26.697zm0-37.942c-4.661 0-8.599 5.149-8.599 11.244 0 6.096 3.938 11.244 8.599 11.244s8.599-5.149 8.599-11.244c.001-6.095-3.938-11.244-8.599-11.244z" fill="#eceaec"/></g></g><g><path d="m84.089 78.664h-40.054c-4.267 0-7.726-3.459-7.726-7.726 0-4.268 3.459-7.726 7.726-7.726h40.054c4.267 0 7.726 3.459 7.726 7.726s-3.459 7.726-7.726 7.726z" fill="#ffc269"/></g><g><path d="m84.089 132.543h-60.08c-4.267 0-7.726-3.459-7.726-7.726 0-4.268 3.459-7.726 7.726-7.726h60.08c4.267 0 7.726 3.459 7.726 7.726 0 4.268-3.459 7.726-7.726 7.726z" fill="#ffc269"/></g><g><path d="m84.089 186.422h-40.054c-4.267 0-7.726-3.459-7.726-7.726s3.459-7.726 7.726-7.726h40.054c4.267 0 7.726 3.459 7.726 7.726s-3.459 7.726-7.726 7.726z" fill="#ffc269"/></g></g></svg>