<svg id="Capa_1" enable-background="new 0 0 512 512" height="512" viewBox="0 0 512 512" width="512" xmlns="http://www.w3.org/2000/svg" xmlns:xlink="http://www.w3.org/1999/xlink"><linearGradient id="SVGID_1_" gradientUnits="userSpaceOnUse" x1="256" x2="256" y1="512" y2="0"><stop offset="0" stop-color="#addcff"/><stop offset=".5028" stop-color="#eaf6ff"/><stop offset="1" stop-color="#eaf6ff"/></linearGradient><linearGradient id="SVGID_2_" gradientUnits="userSpaceOnUse" x1="256" x2="256" y1="407" y2="105"><stop offset="0" stop-color="#00c0ff"/><stop offset="1" stop-color="#5558ff"/></linearGradient><g><g><circle cx="256" cy="256" fill="url(#SVGID_1_)" r="256"/></g><g><g><path d="m352.665 287.765c-1.471-3.123-4.587-5.118-8.032-5.118h-26.59v-168.765c0-3.591-2.164-6.835-5.47-8.206-3.289-1.37-7.132-.616-9.659 1.926l-11.46 11.485-11.46-11.485c-3.462-3.47-9.071-3.47-12.533 0l-11.461 11.485-11.46-11.485c-3.462-3.47-9.071-3.47-12.533 0l-11.46 11.485-11.46-11.485c-2.527-2.542-6.37-3.288-9.659-1.926-3.307 1.371-5.47 4.615-5.47 8.206v168.765h-26.59c-3.445 0-6.561 1.995-8.032 5.118-1.454 3.114-.987 6.801 1.229 9.455l88.633 106.588c1.679 2.021 4.172 3.192 6.803 3.192s5.124-1.171 6.803-3.192l88.633-106.588c2.215-2.655 2.682-6.341 1.228-9.455zm-114.392-93.942c4.895 0 8.863 3.976 8.863 8.882 0 4.905-3.969 8.882-8.863 8.882s-8.863-3.977-8.863-8.882 3.969-8.882 8.863-8.882zm35.454 71.059c-4.895 0-8.863-3.977-8.863-8.882 0-4.906 3.969-8.882 8.863-8.882s8.863 3.976 8.863 8.882c0 4.905-3.969 8.882-8.863 8.882zm7.374-57.249-35.453 53.294c-2.75 4.12-8.256 5.159-12.291 2.463-4.068-2.724-5.176-8.232-2.458-12.317l35.453-53.294c2.735-4.094 8.24-5.17 12.291-2.463 4.068 2.723 5.176 8.231 2.458 12.317z" fill="url(#SVGID_2_)"/></g></g></g></svg>