<svg id="Capa_1" enable-background="new 0 0 512 512" height="512" viewBox="0 0 512 512" width="512" xmlns="http://www.w3.org/2000/svg"><g><g><path d="m416.073 423.49v24.51l-64 64-64-64v-24.51h32v-176.69h64v176.69z" fill="#e34d39"/><path d="m416.073 423.49v24.51l-64 64v-265.2h32v176.69z" fill="#c4351b"/></g><g><path d="m223.926 384.149v24.51l-64 64-64-64v-24.51h32v-137.349h64v137.349z" fill="#e34d39"/><path d="m223.926 384.149v24.51l-64 64v-225.859h32v137.349z" fill="#c4351b"/></g><circle cx="256" cy="160.12" fill="#f3f5f9" r="160.12"/><path d="m416.12 160.12c0 88.44-71.69 160.12-160.12 160.12v-320.24c88.43 0 160.12 71.69 160.12 160.12z" fill="#d8e0f1"/><path d="m333.71 103.63-77.71 77.7-56.5 56.5-21.21-21.21 134.21-134.21z" fill="#ffbf2d"/><path d="m333.71 103.63-77.71 77.7v-42.42l56.5-56.5z" fill="#f0962f"/><path d="m195.75 94.873h30v30h-30z" fill="#ffbf2d"/><path d="m286.125 195.373h30v30h-30z" fill="#f0962f"/></g></svg>