<svg id="Layer_5" enable-background="new 0 0 64 64" height="512" viewBox="0 0 64 64" width="512" xmlns="http://www.w3.org/2000/svg"><path d="m42.656 25h-3.312l.625 20h2.062z"/><path d="m41 58c0 1.1-.368 2.108-.972 2.935.324.028.646.065.972.065 2.957 0 5.737-1.152 7.828-3.243l.172-.172v-2.585h-9.026c.635.838 1.026 1.87 1.026 3z"/><path d="m36 52v1h13v-2h-13.051c.022.332.051.662.051 1z"/><path d="m36 55h-.476c-.261 0-.521.034-.773.102l-10.374 2.766c.391.537.623 1.193.623 1.9 0 .436-.089.852-.247 1.232h11.247c1.654 0 3-1.346 3-3s-1.346-3-3-3z"/><circle cx="21" cy="32" r="5"/><path d="m22.05 58.568-14.827-3.488c-.225-.053-.456-.08-.687-.08h-.536c-1.654 0-3 1.346-3 3s1.346 3 3 3h14 1.768c.679 0 1.232-.553 1.232-1.232 0-.575-.391-1.068-.95-1.2z"/><path d="m34 53.232v-1.232c0-7.168-5.832-13-13-13s-13 5.832-13 13v1.208l7.617 1.792h5.883c.827 0 1.5-.673 1.5-1.5s-.673-1.5-1.5-1.5h-1.5-6c-1.654 0-3-1.346-3-3v-1h2v1c0 .551.448 1 1 1h6 1.5 6.5c.552 0 1-.449 1-1v-1h2v1c0 1.654-1.346 3-3 3h-3.351c.218.456.351.961.351 1.5 0 .924-.367 1.76-.954 2.386z"/><path d="m35.698 49h13.302v-2h-13.875c.231.65.433 1.313.573 2z"/><path d="m33.154 15h-.154c-2.206 0-4 1.794-4 4s1.794 4 4 4h4.281l-.129-4.125c-.068-2.173-1.824-3.875-3.998-3.875z"/><path d="m53 19c0-2.206-1.794-4-4-4h-.154c-2.174 0-3.93 1.702-3.997 3.875l-.129 4.125h4.28c2.206 0 4-1.794 4-4z"/><path d="m41 3c-11.028 0-20 8.972-20 20 0 .669.046 1.339.114 2.006 3.806.061 6.886 3.172 6.886 6.994 0 2.293-1.114 4.326-2.823 5.604 3.929 1.142 7.196 3.844 9.079 7.396h3.712l-.625-20h-4.343c-3.309 0-6-2.691-6-6s2.691-6 6-6h.154c3.261 0 5.896 2.553 5.997 5.812l.13 4.188h3.437l.131-4.188c.101-3.259 2.736-5.812 5.997-5.812h.154c3.309 0 6 2.691 6 6s-2.691 6-6 6h-4.343l-.626 20h5.469l7.5-10c2.579-3.439 4-7.701 4-12 0-11.028-8.972-20-20-20zm0 4c-4.274 0-8.296 1.671-11.322 4.706l-1.416-1.412c3.404-3.414 7.928-5.294 12.738-5.294zm3.766.447c-.622-.15-1.255-.264-1.882-.337l.232-1.986c.706.083 1.419.21 2.118.379zm4.784 34.153-1.6-1.2 1.5-2 1.6 1.2zm5.849-7.8-2.85 3.8-1.6-1.2 2.85-3.8c2.063-2.752 3.2-6.161 3.2-9.6h2c.001 3.869-1.277 7.705-3.6 10.8z"/></svg>