<?xml version="1.0"?>
<svg xmlns="http://www.w3.org/2000/svg" xmlns:xlink="http://www.w3.org/1999/xlink" xmlns:svgjs="http://svgjs.com/svgjs" version="1.1" width="512" height="512" x="0" y="0" viewBox="0 0 64 64" style="enable-background:new 0 0 512 512" xml:space="preserve"><g><g xmlns="http://www.w3.org/2000/svg"><path d="m19 40.075v-1.075c0-1.936.509-3.837 1.471-5.499l-1.73-1.002c-1.139 1.967-1.741 4.215-1.741 6.501v1.075c0 3.408.702 6.716 2.086 9.831 1.27 2.858 1.914 5.892 1.914 9.019v4.075h2v-4.075c0-3.408-.702-6.716-2.086-9.831-1.27-2.858-1.914-5.892-1.914-9.019z" fill="#ffffff" data-original="#000000" style=""/><path d="m42.998 38.76c-.012-.647-.071-1.294-.178-1.926l-1.973.332c.102.601.153 1.218.153 1.834 0 .155.036.309.105.447l3.277 6.553h-2.382c-.553 0-1 .447-1 1v8h-8v2h2v6h2v-6h5c.553 0 1-.447 1-1v-8h3c.347 0 .668-.18.851-.475s.199-.663.044-.973z" fill="#ffffff" data-original="#000000" style=""/><path d="m27 20c-2.206 0-4 1.794-4 4 0 .138.018.273.032.408-1.816.777-3.032 2.567-3.032 4.592 0 2.059 1.252 3.829 3.034 4.595-.013.135-.034.268-.034.405 0 2.206 1.794 4 4 4s4-1.794 4-4v-10c0-2.206-1.794-4-4-4zm2 14c0 1.103-.897 2-2 2s-2-.897-2-2c.879 0 1.744-.231 2.501-.67l-1.002-1.73c-.453.261-.971.4-1.499.4-1.654 0-3-1.346-3-3 0-1.179.687-2.225 1.722-2.712.468.671 1.139 1.199 1.945 1.484l.666-1.886c-.797-.282-1.333-1.039-1.333-1.886 0-1.103.897-2 2-2s2 .897 2 2z" fill="#ffffff" data-original="#000000" style=""/><path d="m37 20c-2.206 0-4 1.794-4 4v10c0 2.206 1.794 4 4 4s4-1.794 4-4c0-.137-.021-.27-.034-.405 1.782-.766 3.034-2.536 3.034-4.595 0-2.025-1.216-3.815-3.032-4.592.014-.135.032-.27.032-.408 0-2.206-1.794-4-4-4zm5 9c0 1.654-1.346 3-3 3-.528 0-1.046-.139-1.499-.4l-1.002 1.73c.757.439 1.622.67 2.501.67 0 1.103-.897 2-2 2s-2-.897-2-2v-10c0-1.103.897-2 2-2s2 .897 2 2c0 .847-.536 1.604-1.333 1.886l.666 1.886c.806-.285 1.477-.813 1.945-1.484 1.035.487 1.722 1.533 1.722 2.712z" fill="#ffffff" data-original="#000000" style=""/><path d="m23 5c0-2.206-1.794-4-4-4s-4 1.794-4 4 1.794 4 4 4 4-1.794 4-4zm-4 2c-1.103 0-2-.897-2-2s.897-2 2-2 2 .897 2 2-.897 2-2 2z" fill="#ffffff" data-original="#000000" style=""/><path d="m49 5c0-2.206-1.794-4-4-4s-4 1.794-4 4 1.794 4 4 4 4-1.794 4-4zm-4 2c-1.103 0-2-.897-2-2s.897-2 2-2 2 .897 2 2-.897 2-2 2z" fill="#ffffff" data-original="#000000" style=""/><path d="m45 9h-26-6v2h38v-2z" fill="#ffffff" data-original="#000000" style=""/><path d="m32.832 11.445c-.371-.557-1.293-.557-1.664 0l-4 6c-.204.307-.224.701-.05 1.026s.513.529.882.529h8c.369 0 .708-.203.882-.528s.154-.72-.05-1.026zm-2.964 5.555 2.132-3.197 2.132 3.197z" fill="#ffffff" data-original="#000000" style=""/><path d="m49 13h2v2h-2z" fill="#ffffff" data-original="#000000" style=""/><path d="m49 17h2v12h-2z" fill="#ffffff" data-original="#000000" style=""/><path d="m45 21h2v6h-2z" fill="#ffffff" data-original="#000000" style=""/><path d="m45 17h2v2h-2z" fill="#ffffff" data-original="#000000" style=""/><path d="m13 13h2v2h-2z" fill="#ffffff" data-original="#000000" style=""/><path d="m13 17h2v12h-2z" fill="#ffffff" data-original="#000000" style=""/><path d="m17 21h2v6h-2z" fill="#ffffff" data-original="#000000" style=""/><path d="m17 17h2v2h-2z" fill="#ffffff" data-original="#000000" style=""/></g></g></svg>
