<svg id="Capa_1" enable-background="new 0 0 512 512" height="512" viewBox="0 0 512 512" width="512" xmlns="http://www.w3.org/2000/svg" xmlns:xlink="http://www.w3.org/1999/xlink"><linearGradient id="SVGID_1_" gradientUnits="userSpaceOnUse" x1="256" x2="256" y1="512" y2="0"><stop offset="0" stop-color="#ffc2cc"/><stop offset="1" stop-color="#fff2f4"/></linearGradient><linearGradient id="SVGID_2_" gradientUnits="userSpaceOnUse" x1="256" x2="256" y1="407" y2="105"><stop offset="0" stop-color="#ffa68d"/><stop offset="1" stop-color="#fd3a84"/></linearGradient><g><g><circle cx="256" cy="256" fill="url(#SVGID_1_)" r="256"/></g><g><g><path d="m256 105c-83.255 0-151 67.736-151 151 0 83.263 67.745 151 151 151s151-67.737 151-151c0-83.264-67.745-151-151-151zm-71.059 88.823c14.694 0 26.647-11.953 26.647-26.647 0-4.91 3.973-8.882 8.882-8.882s8.882 3.973 8.882 8.882c0 24.487-19.916 44.412-44.412 44.412-4.909 0-8.882-3.973-8.882-8.882.001-4.91 3.974-8.883 8.883-8.883zm-7.945 83.914c-2.186-4.389-.416-9.724 3.973-11.918l19.638-9.819-19.638-9.819c-4.389-2.194-6.158-7.529-3.973-11.918 2.221-4.381 7.529-6.142 11.918-3.973l35.529 17.765c1.781 1.57 4.827 2.899 4.817 7.945.006 2.864-1.814 6.19-4.47 7.674-1.78.995-37.655 19.06-35.876 18.036-4.488 2.214-9.752.347-11.918-3.973zm114.533 58.204h-71.059c-4.91 0-8.882-3.973-8.882-8.883 0-4.909 3.973-8.882 8.882-8.882h71.059c4.91 0 8.882 3.973 8.882 8.882.001 4.91-3.972 8.883-8.882 8.883zm39.503-70.122c4.389 2.194 6.158 7.529 3.973 11.918-2.164 4.316-7.427 6.188-11.918 3.973-3.668-1.843 13.295 6.668-35.876-18.036-2.741-1.532-4.476-4.872-4.47-7.674-.007-3.41 2.287-6.677 4.817-7.945l35.529-17.765c4.389-2.186 9.715-.425 11.918 3.973 2.186 4.389.416 9.724-3.973 11.918l-19.639 9.819zm-3.973-54.231c-24.496 0-44.412-19.925-44.412-44.412 0-4.91 3.973-8.882 8.882-8.882 4.91 0 8.882 3.973 8.882 8.882 0 14.694 11.953 26.647 26.647 26.647 4.909 0 8.882 3.973 8.882 8.883.001 4.909-3.972 8.882-8.881 8.882z" fill="url(#SVGID_2_)"/></g></g></g></svg>