<svg id="Icons" height="512" viewBox="0 0 60 60" width="512" xmlns="http://www.w3.org/2000/svg"><circle cx="30" cy="30" fill="#67b9cc" r="29"/><path d="m30 0a30 30 0 1 0 30 30 30.034 30.034 0 0 0 -30-30zm21.277 11.829a27.871 27.871 0 0 1 6.698 17.171h-12.987a55.06 55.06 0 0 0 -1.9-13.847 42.014 42.014 0 0 0 8.189-3.324zm-1.4-1.527a40.2 40.2 0 0 1 -7.367 2.938c-1.511-4.559-3.634-8.2-6.152-10.5a28 28 0 0 1 13.52 7.56zm-32.865 18.698a52.675 52.675 0 0 1 1.879-13.311 47.464 47.464 0 0 0 11.109 1.311 47.464 47.464 0 0 0 11.109-1.311 52.675 52.675 0 0 1 1.879 13.311zm25.976 2a52.675 52.675 0 0 1 -1.879 13.311 47.464 47.464 0 0 0 -11.109-1.311 48.579 48.579 0 0 0 -5.1.284v-.019c-.188.018-.371.049-.558.07s-.363.046-.545.069a45.629 45.629 0 0 0 -4.912.883 52.657 52.657 0 0 1 -1.873-13.287zm-12.988-29c4.265 0 8.126 4.7 10.513 11.773a45.44 45.44 0 0 1 -10.513 1.227 45.44 45.44 0 0 1 -10.513-1.227c2.387-7.073 6.248-11.773 10.513-11.773zm-6.359.737c-2.518 2.3-4.641 5.944-6.152 10.5a40.2 40.2 0 0 1 -7.367-2.937 28 28 0 0 1 13.519-7.563zm-14.918 9.092a42.014 42.014 0 0 0 8.186 3.324 55.06 55.06 0 0 0 -1.897 13.847h-12.987a27.871 27.871 0 0 1 6.698-17.171zm0 36.342a27.871 27.871 0 0 1 -6.698-17.171h12.987a55.135 55.135 0 0 0 1.888 13.81 37.46 37.46 0 0 0 -5.56 2.076q-1.34.6-2.617 1.285zm1.452 1.582c.643-.369 1.309-.723 2.008-1.054a40.889 40.889 0 0 1 5.306-1.939c1.511 4.559 3.634 8.2 6.152 10.5a27.991 27.991 0 0 1 -13.466-7.507zm19.825 8.247c-4.265 0-8.126-4.7-10.513-11.773a44.085 44.085 0 0 1 4.589-.843c.168-.021.336-.045.506-.064a46.639 46.639 0 0 1 5.418-.32 45.44 45.44 0 0 1 10.513 1.227c-2.387 7.073-6.248 11.773-10.513 11.773zm6.359-.737c2.518-2.3 4.641-5.944 6.152-10.5a40.2 40.2 0 0 1 7.367 2.937 28 28 0 0 1 -13.519 7.563zm14.918-9.092a42.014 42.014 0 0 0 -8.186-3.324 55.06 55.06 0 0 0 1.897-13.847h12.987a27.871 27.871 0 0 1 -6.698 17.171z" fill="#2fa8cc"/><g fill="#f29c1f"><rect height="4" rx="2" width="26" x="17" y="12"/><path d="m19.42 29h-1.42a3 3 0 0 1 -3-3v-4a1 1 0 0 1 1-1h3v-4h-6a2.006 2.006 0 0 0 -2 2v7a7 7 0 0 0 7 7h3.51z"/><path d="m40.58 29h1.42a3 3 0 0 0 3-3v-4a1 1 0 0 0 -1-1h-3v-4h6a2.006 2.006 0 0 1 2 2v7a7 7 0 0 1 -7 7h-3.51z"/><path d="m27 36.58h6v4.42h-6z"/></g><path d="m25 45v-2a2 2 0 0 1 2-2h6a2 2 0 0 1 2 2v2z" fill="#f0c419"/><path d="m25 45h10a2 2 0 0 1 2 2v1a1 1 0 0 1 -1 1h-12a1 1 0 0 1 -1-1v-1a2 2 0 0 1 2-2z" fill="#f29c1f"/><path d="m41 16v10a11 11 0 0 1 -11 11 11 11 0 0 1 -11-11v-10z" fill="#f0c419"/></svg>