<svg id="Layer_3" enable-background="new 0 0 64 64" height="512" viewBox="0 0 64 64" width="512" xmlns="http://www.w3.org/2000/svg"><g><path d="m38 62v-3.076c0-3.247-.681-6.457-2-9.424-1.319-2.967-2-6.178-2-9.424v-1.076c0-6.627 5.373-12 12-12 6.627 0 12 5.373 12 12l4 8h-4v9h-6v6" fill="#f2b9a1"/><path d="m52 28.618c-1.766-1.023-3.812-1.618-6-1.618-6.627 0-12 5.373-12 12v1.076c0 3.247.681 6.457 2 9.424.363.816.672 1.652.938 2.5h13.062c1.105 0 2-.895 2-2z" fill="#fbe1ca"/><path d="m38 41c-.552 0-1-.448-1-1v-5c0-.552.448-1 1-1 .552 0 1 .448 1 1v5c0 .552-.448 1-1 1z" fill="#f2b9a1"/><path d="m49 58h-8c-.552 0-1 .448-1 1 0 .552.448 1 1 1h8c.552 0 1-.448 1-1 0-.552-.448-1-1-1z" fill="#fbe1ca"/><path d="m45.696 22.641c-.511-3.017-1.69-5.801-3.391-8.197l2.787-3.294-4.243-4.243-3.294 2.787c-2.396-1.701-5.18-2.88-8.197-3.391l-.358-4.303h-6l-.359 4.304c-3.017.511-5.801 1.69-8.197 3.391l-3.294-2.787-4.243 4.243 2.787 3.294c-1.701 2.396-2.88 5.18-3.391 8.197l-4.303.358v6l4.304.359c.511 3.017 1.69 5.801 3.391 8.197l-2.787 3.294 4.243 4.243 3.294-2.787c2.396 1.701 5.18 2.88 8.197 3.391l.358 4.303h6l.359-4.304c3.017-.511 5.801-1.69 8.197-3.391l3.294 2.787 4.243-4.243-2.787-3.294c1.701-2.396 2.88-5.18 3.391-8.197l4.303-.358v-6zm-19.696 19.359c-8.837 0-16-7.163-16-16s7.163-16 16-16 16 7.163 16 16-7.163 16-16 16z" fill="#4c506e"/><path d="m27 19h-7v14h12v-9z" fill="#c8cded"/><path d="m22 19v10c0 .552.448 1 1 1h8c.552 0 1-.448 1-1v-5l-5-5z" fill="#e2e7f6"/><path d="m27 19v5h5" fill="#c8cded"/><g fill="#787faa"><path d="m28 29h2v2h-2z"/><path d="m22 29h5v2h-5z"/><path d="m28 26h2v2h-2z"/><path d="m22 26h5v2h-5z"/><path d="m27 50v-8.05c-.332.02-.662.05-1 .05s-.668-.03-1-.05v8.05z"/><path d="m27 10.05v-8.05h-2v8.05c.332-.02.662-.05 1-.05s.668.03 1 .05z"/><path d="m50 25h-8.05c.02.332.05.662.05 1s-.03.668-.05 1h8.05z"/><path d="m10.05 25h-8.05v2h8.05c-.02-.332-.05-.662-.05-1s.03-.668.05-1z"/><path d="m42.263 8.322-5.693 5.693c.25.22.504.433.743.671.239.239.451.493.671.743l5.693-5.693z"/><path d="m14.015 36.571-5.693 5.693 1.414 1.414 5.693-5.693c-.25-.22-.504-.433-.743-.671-.238-.239-.451-.493-.671-.743z"/><path d="m8.322 9.737 5.693 5.693c.22-.25.433-.504.671-.743.239-.239.493-.451.743-.671l-5.692-5.694z"/><path d="m36.571 37.985 5.693 5.693 1.414-1.414-5.693-5.693c-.22.25-.433.504-.671.743s-.493.451-.743.671z"/></g><path d="m43.293 23.293-2.308 2.308c-.156-6.002-3.808-11.286-9.407-13.53l-.744 1.857c4.826 1.934 7.982 6.473 8.15 11.641l-2.277-2.277-1.414 1.414 4 4c.195.196.451.294.707.294s.512-.098.707-.293l4-4z" fill="#7fa3f8"/><path d="m25.569 13.017-2.276 2.276 1.414 1.414 4-4c.391-.391.391-1.023 0-1.414l-4-4-1.414 1.414 2.309 2.309c-6.019.163-11.458 3.984-13.617 9.627l1.868.715c1.861-4.865 6.534-8.166 11.716-8.341z" fill="#546ded"/><path d="m26.431 38.983 2.276-2.276-1.414-1.414-4 4c-.391.391-.391 1.023 0 1.414l4 4 1.414-1.414-2.309-2.309c6.019-.163 11.458-3.984 13.616-9.627l-1.868-.715c-1.86 4.865-6.533 8.166-11.715 8.341z" fill="#546ded"/><path d="m13.017 26.431 2.276 2.276 1.414-1.414-4-4c-.391-.391-1.023-.391-1.414 0l-4 4 1.414 1.414 2.309-2.309c.163 6.018 3.984 11.458 9.627 13.616l.715-1.867c-4.865-1.861-8.166-6.535-8.341-11.716z" fill="#7fa3f8"/><path d="m58.998 38.76c-.095-5.164-3.26-9.779-7.998-11.754v-4.006c0-.521-.399-.953-.917-.996l-3.545-.296c-.535-2.583-1.534-4.998-2.978-7.199l2.295-2.713c.335-.396.311-.985-.057-1.353l-4.243-4.242c-.367-.367-.956-.393-1.353-.057l-2.711 2.296c-2.198-1.444-4.614-2.443-7.199-2.979l-.295-3.545c-.043-.518-.477-.916-.997-.916h-6c-.52 0-.953.398-.997.917l-.295 3.545c-2.585.535-5 1.534-7.199 2.979l-2.712-2.296c-.396-.336-.984-.311-1.353.057l-4.243 4.242c-.368.367-.392.956-.057 1.353l2.295 2.713c-1.444 2.201-2.443 4.616-2.978 7.199l-3.545.296c-.517.042-.916.474-.916.995v6c0 .521.399.953.917.996l3.545.296c.535 2.583 1.534 4.998 2.978 7.199l-2.295 2.713c-.335.396-.311.985.057 1.353l4.243 4.242c.369.369.957.393 1.353.057l2.712-2.296c2.198 1.444 4.613 2.443 7.199 2.979l.295 3.545c.043.518.476.916.996.916h6c.52 0 .954-.398.997-.917l.295-3.545c1.149-.238 2.258-.582 3.335-1.001.347 1.499.834 2.964 1.459 4.37 1.27 2.856 1.914 5.89 1.914 9.018v4.075h2v-4.075c0-3.409-.702-6.717-2.086-9.831-.626-1.409-1.095-2.884-1.416-4.391.68-.346 1.349-.719 1.993-1.143l2.712 2.296c.397.336.986.312 1.353-.057l4.243-4.242c.368-.367.392-.956.057-1.353l-2.295-2.713c1.444-2.201 2.443-4.616 2.978-7.199l3.545-.296c.452-.037.796-.377.881-.808 3.657 1.854 6.035 5.634 6.035 9.812 0 .155.036.309.105.447l3.277 6.553h-2.382c-.552 0-1 .447-1 1v8h-8v2h2v6h2v-6h5c.552 0 1-.447 1-1v-8h3c.347 0 .668-.18.851-.475s.199-.663.044-.973zm-9.998-10.68-3.387.282c-.455.037-.827.379-.903.829-.48 2.831-1.563 5.45-3.221 7.785-.264.372-.243.876.052 1.225l2.192 2.592-2.941 2.941-2.591-2.193c-.348-.295-.853-.315-1.225-.052-2.332 1.657-4.951 2.74-7.785 3.221-.45.077-.792.448-.83.903l-.281 3.387h-4.16l-.282-3.387c-.038-.455-.379-.826-.829-.903-2.834-.48-5.453-1.564-7.785-3.221-.371-.263-.876-.243-1.225.052l-2.591 2.193-2.941-2.941 2.192-2.592c.294-.349.316-.853.052-1.225-1.657-2.335-2.741-4.954-3.221-7.785-.076-.45-.448-.792-.903-.829l-3.387-.282v-4.16l3.387-.282c.455-.037.827-.379.903-.829.48-2.831 1.563-5.45 3.221-7.785.264-.372.243-.876-.052-1.225l-2.192-2.592 2.941-2.941 2.591 2.193c.349.296.854.315 1.225.052 2.332-1.656 4.951-2.74 7.785-3.221.45-.077.791-.448.829-.903l.282-3.387h4.16l.282 3.387c.038.455.379.826.83.903 2.834.48 5.453 1.563 7.785 3.221.372.264.876.244 1.225-.052l2.591-2.193 2.941 2.941-2.192 2.592c-.294.349-.316.853-.052 1.225 1.657 2.335 2.741 4.954 3.221 7.785.076.45.448.792.903.829l3.386.282z"/><path d="m40.985 25.601c-.156-6.002-3.808-11.286-9.407-13.53l-.744 1.857c4.826 1.934 7.982 6.473 8.15 11.641l-2.277-2.277-1.414 1.414 4 4c.195.196.451.294.707.294s.512-.098.707-.293l4-4-1.414-1.414z"/><path d="m25.569 13.017-2.276 2.276 1.414 1.414 4-4c.391-.391.391-1.023 0-1.414l-4-4-1.414 1.414 2.309 2.309c-6.019.163-11.458 3.984-13.617 9.627l1.868.715c1.861-4.865 6.534-8.166 11.716-8.341z"/><path d="m26.431 38.983 2.276-2.276-1.414-1.414-4 4c-.391.391-.391 1.023 0 1.414l4 4 1.414-1.414-2.309-2.309c6.019-.163 11.458-3.984 13.616-9.627l-1.868-.715c-1.86 4.865-6.533 8.166-11.715 8.341z"/><path d="m13.017 26.431 2.276 2.276 1.414-1.414-4-4c-.391-.391-1.023-.391-1.414 0l-4 4 1.414 1.414 2.309-2.309c.163 6.018 3.984 11.458 9.627 13.616l.715-1.867c-4.865-1.861-8.166-6.535-8.341-11.716z"/><path d="m33 33v-9c0-.266-.105-.52-.293-.707l-5-5c-.187-.188-.442-.293-.707-.293h-7c-.552 0-1 .447-1 1v14c0 .553.448 1 1 1h12c.552 0 1-.447 1-1zm-5-11.586 1.586 1.586h-1.586zm-7 10.586v-12h5v4c0 .553.448 1 1 1h4v7z"/><path d="m28 29h2v2h-2z"/><path d="m22 29h5v2h-5z"/><path d="m28 26h2v2h-2z"/><path d="m22 26h5v2h-5z"/></g></svg>