<svg id="Layer_3" enable-background="new 0 0 64 64" height="512" viewBox="0 0 64 64" width="512" xmlns="http://www.w3.org/2000/svg"><g><path d="m26 24v-4h-5v12h10v-7h-4c-.552 0-1-.447-1-1zm1 7h-5v-2h5zm0-3h-5v-2h5zm1-2h2v2h-2zm0 3h2v2h-2z"/><path d="m28 21.414v1.586h1.586z"/><path d="m57.105 39.447c-.069-.138-.105-.292-.105-.447 0-4.178-2.378-7.958-6.036-9.811-.085.43-.429.77-.881.808l-3.545.296c-.535 2.583-1.534 4.998-2.978 7.199l2.295 2.713c.335.396.311.985-.057 1.353l-4.243 4.242c-.367.369-.956.393-1.353.057l-2.712-2.296c-.644.423-1.313.796-1.993 1.143.321 1.508.79 2.983 1.416 4.391 1.385 3.113 2.087 6.421 2.087 9.83v3.075h12v-6c0-.553.448-1 1-1h5v-8c0-.553.448-1 1-1h2.382z"/><path d="m38.202 41.541 2.591 2.193 2.941-2.941-2.192-2.592c-.294-.349-.316-.853-.052-1.225 1.657-2.335 2.741-4.954 3.221-7.785.076-.45.448-.792.903-.829l3.386-.282v-4.16l-3.387-.282c-.455-.037-.827-.379-.903-.829-.48-2.831-1.563-5.45-3.221-7.785-.264-.372-.243-.876.052-1.225l2.192-2.592-2.941-2.941-2.591 2.193c-.349.296-.854.315-1.225.052-2.332-1.657-4.951-2.74-7.785-3.221-.45-.077-.792-.448-.83-.903l-.281-3.387h-4.16l-.282 3.387c-.038.455-.379.826-.83.903-2.834.48-5.453 1.563-7.785 3.221-.372.264-.876.244-1.225-.052l-2.591-2.193-2.941 2.941 2.192 2.592c.294.349.316.853.052 1.225-1.657 2.335-2.741 4.954-3.221 7.785-.076.45-.448.792-.903.829l-3.386.282v4.16l3.387.282c.455.037.827.379.903.829.48 2.831 1.563 5.45 3.221 7.785.264.372.243.876-.052 1.225l-2.192 2.592 2.941 2.941 2.591-2.193c.349-.295.854-.314 1.225-.052 2.332 1.657 4.951 2.74 7.785 3.221.45.077.792.448.83.903l.281 3.387h4.159l.282-3.387c.038-.455.379-.826.83-.903 2.834-.48 5.453-1.563 7.785-3.221.373-.263.878-.243 1.226.052zm-6.624-29.47c5.599 2.244 9.25 7.528 9.407 13.53l2.308-2.308 1.414 1.414-4 4c-.195.195-.451.293-.707.293s-.512-.098-.707-.293l-4-4 1.414-1.414 2.277 2.277c-.168-5.168-3.324-9.708-8.15-11.641zm-5.976-1.055-2.309-2.309 1.414-1.414 4 4c.391.391.391 1.023 0 1.414l-4 4-1.414-1.414 2.276-2.276c-5.182.175-9.856 3.477-11.716 8.341l-1.868-.715c2.159-5.643 7.598-9.464 13.617-9.627zm-4.959 28.999c-5.643-2.158-9.464-7.598-9.627-13.616l-2.309 2.309-1.414-1.414 4-4c.391-.391 1.023-.391 1.414 0l4 4-1.414 1.414-2.276-2.276c.175 5.181 3.477 9.855 8.341 11.717zm-.643-6.015c-.552 0-1-.447-1-1v-14c0-.553.448-1 1-1h7c.265 0 .52.105.707.293l5 5c.188.187.293.441.293.707v9c0 .553-.448 1-1 1zm6.398 6.984 2.309 2.309-1.414 1.414-4-4c-.391-.391-.391-1.023 0-1.414l4-4 1.414 1.414-2.276 2.276c5.182-.175 9.856-3.477 11.716-8.341l1.868.715c-2.159 5.643-7.598 9.464-13.617 9.627z"/></g></svg>