<svg id="Layer_3" enable-background="new 0 0 64 64" height="512" viewBox="0 0 64 64" width="512" xmlns="http://www.w3.org/2000/svg"><g><path d="m62.895 46.553-3.897-7.793c-.095-5.164-3.26-9.779-7.998-11.754v-4.006c0-.521-.399-.953-.917-.996l-3.545-.296c-.535-2.583-1.534-4.998-2.978-7.199l2.295-2.713c.335-.396.311-.985-.057-1.353l-4.243-4.242c-.367-.367-.956-.393-1.353-.057l-2.711 2.296c-2.198-1.444-4.614-2.443-7.199-2.979l-.295-3.545c-.043-.518-.477-.916-.997-.916h-6c-.52 0-.954.398-.997.917l-.295 3.545c-2.585.535-5 1.534-7.199 2.979l-2.712-2.296c-.396-.336-.984-.311-1.353.057l-4.243 4.242c-.368.367-.392.956-.057 1.353l2.295 2.713c-1.444 2.201-2.443 4.616-2.978 7.199l-3.545.296c-.517.042-.916.474-.916.995v6c0 .521.399.953.917.996l3.545.296c.535 2.583 1.534 4.998 2.978 7.199l-2.295 2.713c-.335.396-.311.985.057 1.353l4.243 4.242c.369.369.957.393 1.353.057l2.712-2.296c2.198 1.444 4.614 2.443 7.199 2.979l.295 3.545c.042.518.476.916.996.916h6c.52 0 .954-.398.997-.917l.295-3.545c1.149-.238 2.258-.582 3.335-1.001.347 1.499.834 2.964 1.459 4.37 1.27 2.856 1.914 5.89 1.914 9.018v4.075h2v-4.075c0-3.409-.702-6.717-2.086-9.831-.626-1.409-1.095-2.884-1.416-4.391.68-.346 1.349-.719 1.993-1.143l2.712 2.296c.397.336.986.312 1.353-.057l4.243-4.242c.368-.367.392-.956.057-1.353l-2.295-2.713c1.444-2.201 2.443-4.616 2.978-7.199l3.545-.296c.452-.037.796-.377.881-.808 3.657 1.854 6.035 5.634 6.035 9.812 0 .155.036.309.105.447l3.277 6.553h-2.382c-.552 0-1 .447-1 1v8h-8v2h2v6h2v-6h5c.552 0 1-.447 1-1v-8h3c.347 0 .668-.18.851-.475s.198-.663.044-.972zm-13.895-18.473-3.387.282c-.455.037-.827.379-.903.829-.48 2.831-1.563 5.45-3.221 7.785-.264.372-.243.876.052 1.225l2.192 2.592-2.941 2.941-2.591-2.193c-.348-.295-.853-.315-1.225-.052-2.332 1.657-4.951 2.74-7.785 3.221-.45.077-.792.448-.83.903l-.281 3.387h-4.16l-.282-3.387c-.038-.455-.379-.826-.83-.903-2.834-.48-5.453-1.563-7.785-3.221-.371-.263-.876-.243-1.225.052l-2.591 2.193-2.941-2.941 2.192-2.592c.294-.349.316-.853.052-1.225-1.657-2.335-2.741-4.954-3.221-7.785-.076-.45-.448-.792-.903-.829l-3.386-.282v-4.16l3.387-.282c.455-.037.827-.379.903-.829.48-2.831 1.563-5.45 3.221-7.785.264-.372.243-.876-.052-1.225l-2.192-2.592 2.941-2.941 2.591 2.193c.349.296.854.315 1.225.052 2.332-1.657 4.951-2.74 7.785-3.221.45-.077.792-.448.83-.903l.281-3.387h4.159l.282 3.387c.038.455.379.826.83.903 2.834.48 5.453 1.563 7.785 3.221.372.264.876.244 1.225-.052l2.591-2.193 2.941 2.941-2.192 2.592c-.294.349-.316.853-.052 1.225 1.657 2.335 2.741 4.954 3.221 7.785.076.45.448.792.903.829l3.387.282z"/><path d="m40.985 25.601c-.156-6.002-3.808-11.286-9.407-13.53l-.744 1.857c4.826 1.934 7.982 6.473 8.15 11.641l-2.277-2.277-1.414 1.414 4 4c.195.196.451.294.707.294s.512-.098.707-.293l4-4-1.414-1.414z"/><path d="m25.569 13.017-2.276 2.276 1.414 1.414 4-4c.391-.391.391-1.023 0-1.414l-4-4-1.414 1.414 2.309 2.309c-6.019.163-11.458 3.984-13.617 9.627l1.868.715c1.861-4.865 6.534-8.166 11.716-8.341z"/><path d="m26.431 38.983 2.276-2.276-1.414-1.414-4 4c-.391.391-.391 1.023 0 1.414l4 4 1.414-1.414-2.309-2.309c6.019-.163 11.458-3.984 13.616-9.627l-1.868-.715c-1.86 4.865-6.533 8.166-11.715 8.341z"/><path d="m13.017 26.431 2.276 2.276 1.414-1.414-4-4c-.391-.391-1.023-.391-1.414 0l-4 4 1.414 1.414 2.309-2.309c.163 6.018 3.984 11.458 9.627 13.616l.715-1.867c-4.865-1.861-8.166-6.535-8.341-11.716z"/><path d="m33 33v-9c0-.266-.105-.52-.293-.707l-5-5c-.187-.188-.442-.293-.707-.293h-7c-.552 0-1 .447-1 1v14c0 .553.448 1 1 1h12c.552 0 1-.447 1-1zm-5-11.586 1.586 1.586h-1.586zm-7 10.586v-12h5v4c0 .553.448 1 1 1h4v7z"/><path d="m28 29h2v2h-2z"/><path d="m22 29h5v2h-5z"/><path d="m28 26h2v2h-2z"/><path d="m22 26h5v2h-5z"/></g></svg>